<svg width="160" height="161" viewBox="0 0 160 161" fill="none" xmlns="http://www.w3.org/2000/svg">
<path fill-rule="evenodd" clip-rule="evenodd" d="M23.1333 29.0715H29.8L30.1333 29.1382C39.3744 29.3175 47.4489 35.4272 50.1333 44.2715L51.4666 48.8715H121C127.14 48.8995 132.971 51.5717 137 56.2049C141.018 60.8674 142.796 67.0538 141.867 73.1382L137.867 100.738C136.534 111.318 127.596 119.288 116.933 119.405H77.7333C68.3686 119.37 60.1215 113.232 57.4 104.272L40.5333 47.4049C39.2417 42.5261 34.8467 39.1138 29.8 39.0715H23.1333C20.3719 39.0715 18.1333 36.833 18.1333 34.0715C18.1333 31.3101 20.3719 29.0715 23.1333 29.0715ZM67 101.072C68.4152 105.818 72.7802 109.072 77.7333 109.072H116.933C122.451 109.012 127.124 104.986 128 99.5382L132 71.8715C132.545 68.6511 131.657 65.3533 129.568 62.8421C127.48 60.3308 124.399 58.8563 121.133 58.8049H54.4666L67 101.072Z" fill="black"/>
<path d="M76.2 127.405C72.5181 127.405 69.5333 130.39 69.5333 134.072C69.5333 137.753 72.5181 140.738 76.2 140.738C79.8819 140.738 82.8666 137.753 82.8666 134.072C82.8666 130.39 79.8819 127.405 76.2 127.405Z" fill="black"/>
<path d="M116.2 127.405C112.518 127.405 109.533 130.39 109.533 134.072C109.533 137.753 112.518 140.738 116.2 140.738C119.882 140.738 122.867 137.753 122.867 134.072C122.867 130.39 119.882 127.405 116.2 127.405Z" fill="black"/>
</svg>
