<svg version="1.1" id="Layer_1" xmlns="http://www.w3.org/2000/svg" xmlns:xlink="http://www.w3.org/1999/xlink" x="0px" y="0px"
	 width="100%" viewBox="0 0 409 416" enable-background="new 0 0 409 416" xml:space="preserve">
<path fill="#F07C00" opacity="1.000000" stroke="none" 
	d="
M149.150116,335.139099 
	C140.526642,325.019318 132.773956,313.956512 123.075546,305.000793 
	C108.538193,291.576752 93.354797,278.597076 77.135071,267.312958 
	C55.532932,252.284256 32.562538,239.233780 10.459599,224.902145 
	C6.743324,222.492493 4.440422,217.903061 1.242238,214.660400 
	C1.000000,206.979095 1.000000,198.958191 1.000000,190.468643 
	C1.670358,189.216370 2.657005,188.539246 2.962245,187.632690 
	C6.085276,178.357224 9.879079,169.670242 17.459980,162.821457 
	C23.806509,157.087830 30.874475,157.067535 38.151653,158.742050 
	C49.515125,161.356873 58.403717,168.799713 67.704536,175.284790 
	C71.446617,177.893967 74.843330,180.998459 78.876740,184.301819 
	C86.612343,191.514664 93.812881,198.363998 101.146255,205.068024 
	C105.262360,208.830872 109.598114,212.353439 113.978806,216.295197 
	C119.433815,222.261993 125.066742,227.652451 129.992889,233.625793 
	C142.456619,248.739090 154.958939,263.845581 166.753189,279.477386 
	C174.846542,290.204071 181.778946,301.806671 189.049377,313.322601 
	C176.283005,320.699341 163.701813,327.778870 151.097610,334.817169 
	C150.557053,335.118988 149.804123,335.040466 149.150116,335.139099 
z"/>
<path fill="#FBB900" opacity="1.000000" stroke="none" 
	d="
M113.834900,215.984283 
	C109.598114,212.353439 105.262360,208.830872 101.146255,205.068024 
	C93.812881,198.363998 86.612343,191.514664 79.193497,184.444885 
	C83.745209,177.591110 88.990845,171.331650 93.081528,164.391434 
	C110.171799,135.396286 120.789154,103.821129 128.969513,71.371742 
	C132.926147,55.676826 136.446320,39.868702 139.960632,24.066587 
	C142.283630,13.621281 148.485062,6.793838 158.318832,2.991178 
	C159.170364,2.661891 159.901230,2.020579 160.344086,1.262103 
	C171.020889,1.000000 182.041794,1.000000 193.531342,1.000000 
	C195.500641,2.001420 196.876358,3.339470 198.522003,3.950135 
	C210.012817,8.214164 215.602142,18.658916 213.704742,28.893707 
	C211.459656,41.003834 207.374420,52.774097 204.052948,64.682228 
	C203.452774,66.833984 202.689362,68.940208 201.685257,71.621475 
	C200.840164,73.001320 200.214203,73.781113 199.796722,74.659927 
	C194.092651,86.667625 188.398743,98.680305 182.770081,110.723427 
	C182.315170,111.696754 182.356613,112.902046 182.013885,114.324692 
	C177.721466,121.790901 173.862717,129.112946 169.388916,136.037613 
	C157.954285,153.736420 146.468658,171.411041 134.557266,188.789520 
	C128.122162,198.178192 120.772163,206.939789 113.834900,215.984283 
z"/>
<path fill="#9D3247" opacity="1.000000" stroke="none" 
	d="
M148.929901,335.398438 
	C149.804123,335.040466 150.557053,335.118988 151.097610,334.817169 
	C163.701813,327.778870 176.283005,320.699341 189.346558,313.144867 
	C191.928589,311.760559 194.079788,310.954590 196.129227,309.942566 
	C224.044968,296.157532 253.205551,285.593536 282.949829,276.595886 
	C290.458557,274.324493 298.204407,272.836975 305.930878,271.388672 
	C306.569489,274.680817 307.127289,277.571869 307.666077,280.466461 
	C309.859924,292.253387 312.047974,304.041351 314.238159,315.828979 
	C306.947662,318.313416 299.443329,320.306793 292.405151,323.370850 
	C267.409546,334.252533 244.738434,349.154358 223.189560,365.623871 
	C209.077393,376.409637 196.014297,388.564636 182.426895,400.041901 
	C175.914963,405.542542 169.276779,410.893738 162.847900,416.656311 
	C155.979050,417.000000 148.958099,417.000000 141.468567,417.000000 
	C139.823593,415.930817 138.805145,414.565125 137.445129,413.840576 
	C128.695709,409.179047 120.579910,403.890045 114.286644,395.912567 
	C105.131302,384.307068 104.622169,371.636475 115.340179,361.590515 
	C125.574478,351.997925 137.517670,344.228577 148.929901,335.398438 
z"/>
<path fill="#E30413" opacity="1.000000" stroke="none" 
	d="
M182.167404,113.999550 
	C182.356613,112.902046 182.315170,111.696754 182.770081,110.723427 
	C188.398743,98.680305 194.092651,86.667625 199.796722,74.659927 
	C200.214203,73.781113 200.840164,73.001320 201.684631,72.004471 
	C213.137573,74.886932 224.132843,78.686829 235.441528,80.842369 
	C260.921417,85.699059 286.804138,85.622314 312.596771,84.843910 
	C327.864532,84.383148 343.075806,82.239777 358.331512,81.110764 
	C366.571106,80.500977 375.069824,79.112968 383.059662,80.438606 
	C394.302155,82.303917 400.820068,90.901665 404.950867,101.171432 
	C406.450958,104.900963 407.841064,108.674744 409.640686,112.214172 
	C410.000000,120.354233 410.000000,128.708466 410.000000,137.531357 
	C409.349945,138.294540 408.351257,138.413559 408.101471,138.909637 
	C403.528290,147.992569 395.493774,151.446625 386.048218,151.926880 
	C373.366028,152.571747 360.656769,152.684433 347.135681,152.857452 
	C339.653992,151.896164 332.993622,151.120514 326.338104,150.305359 
	C317.885529,149.270111 309.436890,148.202835 300.563232,147.089569 
	C298.211060,146.693054 296.282867,146.352402 294.353271,146.020187 
	C267.949005,141.474533 242.122864,134.617249 216.696213,126.265663 
	C205.095215,122.455215 193.671524,118.104973 182.167404,113.999550 
z"/>
<path fill="#ADA81C" opacity="1.000000" stroke="none" 
	d="
M300.986542,147.149368 
	C309.436890,148.202835 317.885529,149.270111 326.338104,150.305359 
	C332.993622,151.120514 339.653992,151.896164 346.671448,152.908859 
	C346.894806,158.171005 346.395050,163.236542 346.710754,168.250732 
	C347.153351,175.279938 347.717468,182.367966 349.094849,189.257858 
	C351.871490,203.146927 354.647919,217.083191 358.471344,230.706131 
	C366.730072,260.132202 378.552399,288.228973 391.370789,315.946930 
	C400.470520,335.623840 392.197418,346.132629 378.384705,357.766632 
	C371.217804,363.803101 362.773193,367.390808 353.429199,369.547760 
	C346.780823,371.082489 334.999969,366.531464 332.450104,361.613739 
	C327.523743,352.112610 323.165619,342.285675 319.129974,332.366760 
	C317.062439,327.285095 316.199707,321.713287 314.515320,316.095947 
	C312.047974,304.041351 309.859924,292.253387 307.666077,280.466461 
	C307.127289,277.571869 306.569489,274.680817 305.835754,270.993256 
	C305.091064,265.332336 304.381104,260.478088 303.997925,255.598145 
	C302.606079,237.873215 300.660370,220.157501 300.183228,202.404465 
	C299.688782,184.006577 300.657684,165.569382 300.986542,147.149368 
z"/>
</svg>