<svg width="100%" height="100%" viewBox="0 0 160 160" fill="none" xmlns="http://www.w3.org/2000/svg">
<path fill-rule="evenodd" clip-rule="evenodd" d="M135.2 25.4667L146.267 56.2C148.674 62.1509 148.079 68.896 144.667 74.3333C141.763 78.4542 137.561 81.4822 132.733 82.9333V128.267C132.628 133.359 130.504 138.201 126.828 141.727C123.152 145.253 118.226 147.174 113.133 147.067H48.7333C43.5777 147.264 38.5581 145.386 34.7988 141.852C31.0394 138.319 28.8545 133.425 28.7333 128.267V83.6C24.0397 82.5251 19.8121 79.9792 16.6667 76.3333C12.1439 70.6877 11.0223 63.0399 13.7333 56.3333L24.7333 25.5333C27.3276 18.9647 33.7395 14.7079 40.8 14.8667H119.133C126.183 14.6777 132.6 18.9114 135.2 25.4667ZM89.0097 136.2H89.0667V136.4C89.0465 136.334 89.0275 136.267 89.0097 136.2ZM89.0097 136.2H72.0667C72.1301 135.691 72.1301 135.176 72.0667 134.667V120.6C72.1828 118.485 73.1616 116.51 74.7745 115.136C76.3875 113.763 78.4932 113.111 80.6 113.333C84.7895 113.026 88.446 116.148 88.8 120.333V134.6C88.7999 135.14 88.8705 135.678 89.0097 136.2ZM112.8 136.2H98.7333C98.7968 135.691 98.7968 135.176 98.7333 134.667V120.6C98.3714 110.783 90.1522 103.1 80.3333 103.4C70.4889 103.063 62.2284 110.756 61.8667 120.6V134.867C61.8032 135.376 61.8032 135.891 61.8667 136.4H48.4C43.4892 136.627 39.3182 132.843 39.0667 127.933V83.4667C47.9491 82.1258 55.0829 75.4428 57 66.6667C59.3481 77.314 69.1204 84.6503 80 83.9333C90.6831 84.3811 100.15 77.1052 102.467 66.6667C104.342 75.9954 112.069 83.0192 121.533 84V128.267C121.126 132.81 117.361 136.316 112.8 136.4V136.2ZM126.133 72.2667C129.668 72.1738 132.942 70.3879 134.933 67.4667V67.6667C136.317 65.336 136.49 62.4812 135.4 60L124.4 29.6667C123.424 27.6828 121.337 26.4942 119.133 26.6667H40.8C38.6793 26.4728 36.6428 27.5433 35.6 29.4L24.6 60C23.1704 62.8294 23.4271 66.2182 25.2667 68.8C26.9283 70.8418 29.3192 72.1568 31.9333 72.4667C32.7749 72.5648 33.6251 72.5648 34.4667 72.4667C39.5964 72.7469 44.2293 69.4178 45.6 64.4667C46.6172 58.8313 51.4744 54.6998 57.2 54.6C62.9873 54.5973 67.9122 58.8146 68.8 64.5333C70.157 69.515 74.8503 72.8394 80 72.4667C85.192 72.8127 89.8844 69.3847 91.1333 64.3333C92.0977 58.6576 96.9768 54.4795 102.733 54.4C108.499 54.3921 113.416 58.5744 114.333 64.2667C115.692 69.2852 120.414 72.6386 125.6 72.2667H126.133Z" fill="black"/>
</svg>
